<?xml version="1.0" encoding="utf-8"?>
<!-- Generator: Adobe Illustrator 16.0.0, SVG Export Plug-In . SVG Version: 6.00 Build 0)  -->
<!DOCTYPE svg PUBLIC "-//W3C//DTD SVG 1.1//EN" "http://www.w3.org/Graphics/SVG/1.1/DTD/svg11.dtd">
<svg version="1.1" id="Layer_1" xmlns="http://www.w3.org/2000/svg" xmlns:xlink="http://www.w3.org/1999/xlink" x="0px" y="0px"
	 width="500px" height="500px" viewBox="0 0 500 500" enable-background="new 0 0 500 500" xml:space="preserve">
<rect fill="#FFFFFF" width="500" height="499.976"/>
<g>
	<defs>
		<rect id="SVGID_1_" y="-0.001" width="500" height="499.953"/>
	</defs>
	<clipPath id="SVGID_2_">
		<use xlink:href="#SVGID_1_"  overflow="visible"/>
	</clipPath>
	<polygon clip-path="url(#SVGID_2_)" fill="#DCDCDC" points="-13.301,-16.897 -13.301,4.184 5.04,-16.897 	"/>
</g>
<polygon fill="#DCDCDC" points="5.595,0 0,7.043 0,80.205 7.991,84.714 37.271,0 "/>
<g>
	<defs>
		<rect id="SVGID_3_" y="-0.001" width="500" height="499.953"/>
	</defs>
	<clipPath id="SVGID_4_">
		<use xlink:href="#SVGID_3_"  overflow="visible"/>
	</clipPath>
	<path clip-path="url(#SVGID_4_)" fill="#DCDCDC" d="M70.392,10.877H42.564L19.323,81.552l46.443-39.843
		c0,0-1.784-12.293-1.224-15.811C65.176,21.918,70.392,10.877,70.392,10.877"/>
	<polygon clip-path="url(#SVGID_4_)" fill="#DCDCDC" points="43.978,5.66 70.392,5.938 46.588,-2.379 	"/>
	<path clip-path="url(#SVGID_4_)" fill="#DCDCDC" d="M78.177,8.658l18.777,6.562L70.823,37.369c0,0,1.303-12.712,2.415-16.531
		C74.204,17.519,78.177,8.658,78.177,8.658"/>
	<polygon clip-path="url(#SVGID_4_)" fill="#DCDCDC" points="51.305,-16.897 48.906,-9.512 102.135,10.506 124.811,-8.947 
		116.401,-16.897 	"/>
	<polygon clip-path="url(#SVGID_4_)" fill="#DCDCDC" points="150.827,-11.654 118.446,16.613 173.111,35.893 179.962,28.428 	"/>
	<polygon clip-path="url(#SVGID_4_)" fill="#DCDCDC" points="201.622,-16.897 156.832,-16.897 172.214,8.031 	"/>
	<polygon clip-path="url(#SVGID_4_)" fill="#DCDCDC" points="209.528,-16.897 244.47,-16.897 184.388,25.739 174.428,12.458 	"/>
	<polygon clip-path="url(#SVGID_4_)" fill="#DCDCDC" points="251.624,-16.897 280.044,-16.897 265.34,24 239.568,-7.147 	"/>
	<polygon clip-path="url(#SVGID_4_)" fill="#DCDCDC" points="241.229,32.696 254.826,20.522 234.747,-3.511 217.513,9.217 	"/>
	<polygon clip-path="url(#SVGID_4_)" fill="#DCDCDC" points="212.216,13.644 187.314,30.325 196.75,44.18 218.309,51.834 
		236.169,37.07 	"/>
	<polygon clip-path="url(#SVGID_4_)" fill="#DCDCDC" points="226.077,54.568 252.675,63.955 262.336,32.116 257.593,25.054 	"/>
	<polygon clip-path="url(#SVGID_4_)" fill="#DCDCDC" points="182.544,31.063 177.499,37.44 187.942,41.125 	"/>
	<polygon clip-path="url(#SVGID_4_)" fill="#DCDCDC" points="279.096,3.551 273.088,20.417 284.472,12.827 	"/>
	<polygon clip-path="url(#SVGID_4_)" fill="#DCDCDC" points="303.55,1.127 289.32,-16.897 281.415,-1.719 289.742,9.981 	"/>
	<polygon clip-path="url(#SVGID_4_)" fill="#DCDCDC" points="333.38,-9.466 314.091,4.421 340.231,35.49 361.313,17.571 	"/>
	<polygon clip-path="url(#SVGID_4_)" fill="#DCDCDC" points="365.528,14.514 337.701,-12.786 343.077,-16.897 363.315,-16.897 
		379.337,1.021 	"/>
	<polygon clip-path="url(#SVGID_4_)" fill="#DCDCDC" points="385.767,5.554 369.64,18.308 377.703,26.319 	"/>
	<polygon clip-path="url(#SVGID_4_)" fill="#DCDCDC" points="307.767,7.662 293.431,15.936 319.045,48.454 335.066,37.598 	"/>
	<polygon clip-path="url(#SVGID_4_)" fill="#DCDCDC" points="266.447,38.019 257.899,65.798 332.617,92.151 339.81,79.259 
		353.091,71.591 374.277,31.194 364.475,21.47 325.053,53.619 315.461,53.514 287.528,17.887 268.555,30.641 282.258,51.089 
		293.958,40.654 297.964,47.927 285.525,55.938 295.117,69.747 290.479,72.065 	"/>
	<polygon clip-path="url(#SVGID_4_)" fill="#ACD47C" points="377.703,34.593 358.52,77.441 362.735,81.236 409.536,67.164 	"/>
	<polygon clip-path="url(#SVGID_4_)" fill="#ACD47C" points="388.823,11.984 381.234,29.692 413.805,66.057 431.512,59.891 	"/>
	<polygon clip-path="url(#SVGID_4_)" fill="#ACD47C" points="400.365,-9.466 391.67,7.662 434.201,57.915 447.64,55.253 	"/>
	<polygon clip-path="url(#SVGID_4_)" fill="#ACD47C" points="405.425,-10.625 410.801,-16.897 419.653,-16.897 463.293,49.456 
		449.695,53.882 	"/>
	<polygon clip-path="url(#SVGID_4_)" fill="#ACD47C" points="427.086,-16.897 440.051,-16.897 457.601,6.451 446.059,13.012 	"/>
	<polygon clip-path="url(#SVGID_4_)" fill="#ACD47C" points="460.131,10.403 449.063,17.887 466.139,43.922 478.472,33.645 	"/>
	<polygon clip-path="url(#SVGID_4_)" fill="#ACD47C" points="446.85,-16.897 461.554,3.289 477.206,-8.413 466.771,-16.897 	"/>
	<polygon clip-path="url(#SVGID_4_)" fill="#ACD47C" points="496.021,-16.897 464.875,7.663 481.317,30.482 515.311,6.792 
		515.311,-16.897 	"/>
	<polygon clip-path="url(#SVGID_4_)" fill="#ACD47C" points="501.556,23.842 468.984,48.454 508.354,36.148 	"/>
	<polygon clip-path="url(#SVGID_4_)" fill="#ACD47C" points="515.311,40.76 472.305,53.883 515.311,86.453 	"/>
	<polygon clip-path="url(#SVGID_4_)" fill="#ACD47C" points="433.41,93.568 472.305,61.946 464.874,53.882 416.335,71.434 	"/>
	<polygon clip-path="url(#SVGID_4_)" fill="#ACD47C" points="476.574,64.792 510.409,91.039 431.512,142.423 404.477,123.292 	"/>
	<polygon clip-path="url(#SVGID_4_)" fill="#ACD47C" points="404.477,116.81 429.932,96.414 410.643,71.907 	"/>
	<polygon clip-path="url(#SVGID_4_)" fill="#ACD47C" points="404.477,74.437 397.994,119.34 355.463,100.209 364.633,86.453 	"/>
	<polygon clip-path="url(#SVGID_4_)" fill="#ACD47C" points="513.413,96.889 437.363,146.535 493.808,183.849 514.14,159.63 	"/>
	<polygon clip-path="url(#SVGID_4_)" fill="#DCDCDC" points="514.14,166.14 498.394,186.694 508.827,195.074 515.469,195.074 	"/>
	<polygon clip-path="url(#SVGID_4_)" fill="#DCDCDC" points="467.337,173.349 437.322,205.991 497.128,207.407 472.463,183.849 	"/>
	<polygon clip-path="url(#SVGID_4_)" fill="#DCDCDC" points="480.515,182.727 501.239,204.876 511.64,204.876 	"/>
	<polygon clip-path="url(#SVGID_4_)" fill="#DCDCDC" points="447.798,221.162 474.677,253.732 515.469,214.205 	"/>
	<polygon clip-path="url(#SVGID_4_)" fill="#DCDCDC" points="424.767,310.93 514.14,222.111 514.14,272.39 451.909,324.051 	"/>
	<polygon clip-path="url(#SVGID_4_)" fill="#DCDCDC" points="514.14,279.188 514.14,304.96 494.44,295.157 	"/>
	<polygon clip-path="url(#SVGID_4_)" fill="#DCDCDC" points="489.697,299.426 457.887,326.94 514.14,354.135 514.14,310.968 	"/>
	<polygon clip-path="url(#SVGID_4_)" fill="#DCDCDC" points="433.953,210.211 428.034,218.316 462.661,214.913 	"/>
	<polygon clip-path="url(#SVGID_4_)" fill="#DCDCDC" points="396.283,204.041 372.696,227.329 419.022,220.213 428.596,209.333 	"/>
	<path clip-path="url(#SVGID_4_)" fill="#DCDCDC" d="M351.83,196.76l-30.678,19.343c0,0,4.95,6.604,5.851,9.17
		c0.855,2.439,1.106,10.278,1.106,10.278l35.732-6.167l28.016-26.068L351.83,196.76z"/>
	<path clip-path="url(#SVGID_4_)" fill="#ACD47C" d="M431.835,148.084l-7.437,5.25c0,0,0.619,18.766,0,24.98
		c-0.616,6.179-5.018,24.678-5.018,24.678l12.257,2.048l30.706-35.263L431.835,148.084z"/>
	<path clip-path="url(#SVGID_4_)" fill="#ACD47C" d="M426.77,144.479c0,0-31.987-20.937-43.321-26.721
		c-9.331-4.761-38.737-15.968-38.737-15.968l-39.679,82.088l47.514,7.942L426.77,144.479z"/>
	<path clip-path="url(#SVGID_4_)" fill="#DCDCDC" d="M345.762,195.766l-43.896-7.19l-2.689,5.234c0,0,8.968,6.285,11.542,8.854
		c2.384,2.379,8.222,10.672,8.222,10.672L345.762,195.766z"/>
	<path clip-path="url(#SVGID_4_)" fill="#ACD47C" d="M418.706,157.286l-57.771,35.937l53.271,8.904c0,0,3.249-20.054,3.866-26.975
		C418.471,170.701,418.706,157.286,418.706,157.286"/>
	<path clip-path="url(#SVGID_4_)" fill="#ACD47C" d="M296.014,198.553c0,0,7.457,4.446,9.645,6.324
		c2.378,2.043,8.38,9.329,8.38,9.329l-23.234,15.788c0,0-2.282-2.492-3.133-3.225c-0.776-0.669-3.307-2.382-3.307-2.382
		L296.014,198.553z"/>
	<path clip-path="url(#SVGID_4_)" fill="#ACD47C" d="M316.726,219.423l-22.958,15.253c0,0,0.812,1.875,1.045,2.518
		c0.279,0.768,0.844,3.028,0.844,3.028l27.394-4.672c0,0-0.897-7.631-1.897-9.96C320.404,223.845,316.726,219.423,316.726,219.423"
		/>
	<path clip-path="url(#SVGID_4_)" fill="#ACD47C" d="M322.067,261.284l-26.194-12.249c0,0,0.231-1.876,0.264-2.504
		c0.035-0.667-0.003-2.669-0.003-2.669l26.916-2.936c0,0,0.091,6.405,0,8.538C322.941,252.04,322.067,261.284,322.067,261.284"/>
	<polygon clip-path="url(#SVGID_4_)" fill="#DCDCDC" points="328.584,240.293 327.33,263.828 349.929,242.666 349.929,238.396 	"/>
	<polygon clip-path="url(#SVGID_4_)" fill="#DCDCDC" points="331.998,266.085 352.3,246.618 391.512,265.433 379.028,288.819 	"/>
	<polygon clip-path="url(#SVGID_4_)" fill="#DCDCDC" points="401.077,249.78 393.408,261.796 355.937,242.982 364.633,233.969 
		382.657,233.969 	"/>
	<polygon clip-path="url(#SVGID_4_)" fill="#DCDCDC" points="386.926,231.439 414.279,225.905 403.211,243.772 	"/>
	<polygon clip-path="url(#SVGID_4_)" fill="#DCDCDC" points="408.271,246.618 423.133,261.164 431.354,256.579 442.106,256.104 
		456.178,270.176 470.882,257.527 442.581,222.111 422.5,223.534 	"/>
	<polygon clip-path="url(#SVGID_4_)" fill="#DCDCDC" points="451.909,274.366 440.842,261.796 431.987,261.796 419.654,275.077 
		409.22,275.077 396.887,270.176 384.582,291.505 418.658,307.977 	"/>
	<polygon clip-path="url(#SVGID_4_)" fill="#DCDCDC" points="405.267,251.361 398.468,264.643 408.271,270.176 418.231,270.176 
		422.501,265.274 	"/>
	<polygon clip-path="url(#SVGID_4_)" fill="#DCDCDC" points="337.097,93.731 351.112,98.674 358.52,84.924 352.88,78.284 
		342.234,82.922 	"/>
	<polygon clip-path="url(#SVGID_4_)" fill="#DCDCDC" points="291.605,83.234 278.621,106.849 315.303,148.432 340.294,100.247 	"/>
	<polygon clip-path="url(#SVGID_4_)" fill="#DCDCDC" points="286.132,81.321 273.72,102.896 258.015,88.508 257.118,71.075 	"/>
	<polygon clip-path="url(#SVGID_4_)" fill="#DCDCDC" points="253.008,83.607 234.035,102.896 248.581,146.852 257.118,137.048 	"/>
	<polygon clip-path="url(#SVGID_4_)" fill="#DCDCDC" points="258.699,143.373 238.303,177.208 245.576,194.441 262.178,187.644 	"/>
	<path clip-path="url(#SVGID_4_)" fill="#DCDCDC" d="M265.498,149.539l2.214,38.104c0,0,12.078-0.894,15.969,0
		c2.912,0.67,10.752,5.218,10.752,5.218l1.739-5.218L265.498,149.539z"/>
	<polygon clip-path="url(#SVGID_4_)" fill="#DCDCDC" points="262.811,119.34 262.811,140.685 299.176,182.9 305.658,168.907 	"/>
	<polygon clip-path="url(#SVGID_4_)" fill="#DCDCDC" points="259.965,96.889 260.755,111.593 268.503,116.494 271.639,107.64 	"/>
	<polygon clip-path="url(#SVGID_4_)" fill="#DCDCDC" points="275.459,111.593 272.455,119.34 308.346,163.611 312.931,153.017 	"/>
	<path clip-path="url(#SVGID_4_)" fill="#ACD47C" d="M270.031,192.861h12.754l9.908,4.532l-12.218,25.113
		c0,0-3.845-1.139-5.165-1.322c-1.39-0.193-5.612-0.141-5.612-0.141L270.031,192.861z"/>
	<path clip-path="url(#SVGID_4_)" fill="#ACD47C" d="M264.55,192.861l-16.232,6.957l13.407,23.354c0,0,1.188-0.516,1.587-0.666
		c0.416-0.157,1.673-0.563,1.673-0.563L264.55,192.861z"/>
	<path clip-path="url(#SVGID_4_)" fill="#ACD47C" d="M229.832,214.916l13.742-13.517l14.59,23.8c0,0-1.035,0.742-1.358,1.004
		c-0.321,0.261-1.262,1.074-1.262,1.074L229.832,214.916z"/>
	<polygon clip-path="url(#SVGID_4_)" fill="#DCDCDC" points="228.185,107.692 209.211,124.241 234.931,170.726 245.577,151.121 	"/>
	<polygon clip-path="url(#SVGID_4_)" fill="#DCDCDC" points="215.536,149.117 185.918,193.804 223.833,212.031 240.833,195.917 	"/>
	<polygon clip-path="url(#SVGID_4_)" fill="#DCDCDC" points="212.269,143.373 180.799,191.343 132.487,168.117 203.415,127.615 	"/>
	<polygon clip-path="url(#SVGID_4_)" fill="#DCDCDC" points="207.63,118.76 252.428,77.02 252.197,69.464 187.256,46.772 
		180.436,54.042 	"/>
	<polygon clip-path="url(#SVGID_4_)" fill="#DCDCDC" points="175.587,56.36 147.128,72.381 162.411,100.841 188.447,86.928 	"/>
	<polygon clip-path="url(#SVGID_4_)" fill="#DCDCDC" points="165.573,105.058 179.698,136.785 201.517,123.188 189.289,92.831 	"/>
	<polygon clip-path="url(#SVGID_4_)" fill="#DCDCDC" points="97.903,52.46 111.711,85.557 171.16,51.933 170.983,41.086 
		140.788,30.535 	"/>
	<polygon clip-path="url(#SVGID_4_)" fill="#DCDCDC" points="96.954,48.56 95.442,36.695 113.442,20.98 134.427,28.313 	"/>
	<polygon clip-path="url(#SVGID_4_)" fill="#DCDCDC" points="142.647,73.805 110.394,94.833 132.528,164.243 175.535,139.208 	"/>
	<polygon clip-path="url(#SVGID_4_)" fill="#DCDCDC" points="89.831,41.592 102.33,88.667 35.906,88.667 	"/>
	<polygon clip-path="url(#SVGID_4_)" fill="#DCDCDC" points="29.676,94.163 11.514,109.958 43.672,125.418 98.694,92.831 	"/>
	<polygon clip-path="url(#SVGID_4_)" fill="#DCDCDC" points="48.256,127.614 85.548,145.551 102.329,96.572 	"/>
	<polygon clip-path="url(#SVGID_4_)" fill="#DCDCDC" points="106.757,99.418 89.946,147.666 127.785,165.856 	"/>
	<polygon clip-path="url(#SVGID_4_)" fill="#DCDCDC" points="14.288,188.571 83.229,156.171 3.767,116.722 	"/>
	<polygon clip-path="url(#SVGID_4_)" fill="#DCDCDC" points="-13.301,210.147 7.821,191.367 -2.287,122.007 -14.144,132.357 	"/>
	<polygon clip-path="url(#SVGID_4_)" fill="#DCDCDC" points="8.602,196.727 -13.301,216.683 -13.301,253.364 -1.058,262.498 
		17.753,259.52 	"/>
	<path clip-path="url(#SVGID_4_)" fill="#DCDCDC" d="M75.293,167.563l-60.258,26.11l0.969,6.62c0,0,15.729-7.146,23.715-6.642
		c4.892,0.308,18.024,7.22,18.024,7.22L75.293,167.563z"/>
	<path clip-path="url(#SVGID_4_)" fill="#DCDCDC" d="M19.006,203.77c0,0,15.47-6.296,20.87-5.85
		c4.177,0.346,15.179,7.115,15.179,7.115l-12.359,28.934L19.006,203.77z"/>
	<polygon clip-path="url(#SVGID_4_)" fill="#DCDCDC" points="16.903,206.434 24.52,258.448 30.608,257.484 40.035,238.396 	"/>
	<polygon clip-path="url(#SVGID_4_)" fill="#DCDCDC" points="43.513,243.139 38.001,256.314 53.77,253.818 	"/>
	<polygon clip-path="url(#SVGID_4_)" fill="#DCDCDC" points="80.669,170.409 70.55,189.699 85.57,191.912 	"/>
	<polygon clip-path="url(#SVGID_4_)" fill="#DCDCDC" points="68.652,193.967 47.15,237.605 58.892,253.008 97.895,246.834 
		86.36,196.023 	"/>
	<polygon clip-path="url(#SVGID_4_)" fill="#DCDCDC" points="86.1,157.597 102.329,235.392 126.046,204.561 144.228,222.902 
		159.146,193.86 	"/>
	<polygon clip-path="url(#SVGID_4_)" fill="#DCDCDC" points="126.046,210.885 103.278,243.139 103.278,245.982 151.278,238.384 	"/>
	<polygon clip-path="url(#SVGID_4_)" fill="#DCDCDC" points="163.952,196.246 154.979,214.68 180.436,227.17 189.524,208.94 	"/>
	<polygon clip-path="url(#SVGID_4_)" fill="#DCDCDC" points="152.45,218.632 148.497,227.17 156.879,237.497 179.171,233.969 	"/>
	<polygon clip-path="url(#SVGID_4_)" fill="#DCDCDC" points="195.21,211.764 185.495,233.97 213.164,248.515 217.265,222.713 	"/>
	<polygon clip-path="url(#SVGID_4_)" fill="#DCDCDC" points="221.86,271.283 214.587,253.574 189.447,274.919 198.145,287.094 	"/>
	<path clip-path="url(#SVGID_4_)" fill="#ACD47C" d="M248.875,237.494c0,0-0.627,2.157-0.774,2.891
		c-0.159,0.794-0.428,3.213-0.428,3.213l-28.5,4.917l2.601-23.564L248.875,237.494z"/>
	<path clip-path="url(#SVGID_4_)" fill="#ACD47C" d="M221.86,252.784l6.641,16.127l21.296-13.625c0,0-1.095-2.81-1.357-3.778
		c-0.244-0.904-0.683-3.679-0.683-3.679L221.86,252.784z"/>
	<path clip-path="url(#SVGID_4_)" fill="#ACD47C" d="M230.398,274.445l21.535-15.406c0,0,2.022,2.583,2.798,3.35
		c0.88,0.868,3.832,3.123,3.832,3.123l-12.669,23.162L230.398,274.445z"/>
	<path clip-path="url(#SVGID_4_)" fill="#ACD47C" d="M263.564,268.03c0,0,3.248,0.963,4.36,1.144
		c1.171,0.19,4.734,0.312,4.734,0.312l1.556,27.311l-22.155-5.592L263.564,268.03z"/>
	<path clip-path="url(#SVGID_4_)" fill="#ACD47C" d="M278.376,296.422l18.586-6.482l-12.513-23.937c0,0-2.701,1.438-3.649,1.81
		c-0.995,0.39-4.102,1.21-4.102,1.21L278.376,296.422z"/>
	<path clip-path="url(#SVGID_4_)" fill="#ACD47C" d="M301.705,287.094l15.514-15.639l-25.267-12.553c0,0-1.306,1.757-1.787,2.305
		c-0.504,0.575-2.153,2.169-2.153,2.169L301.705,287.094z"/>
	<path clip-path="url(#SVGID_4_)" fill="#DCDCDC" d="M226.182,276.553l-99.714,60.714l36.048,45.536
		c0,0,40.175-54.557,50.806-74.417C217.373,300.818,226.182,276.553,226.182,276.553"/>
	<path clip-path="url(#SVGID_4_)" fill="#DCDCDC" d="M230.398,284.354l13.914,10.54l-57.974,117.001l-20.448-26.773
		c0,0,33.866-44.618,43.638-60.503C215.469,314.961,230.398,284.354,230.398,284.354"/>
	<polygon clip-path="url(#SVGID_4_)" fill="#DCDCDC" points="194.349,289.623 182.544,276.553 88.732,292.364 124.36,334.526 	"/>
	<polygon clip-path="url(#SVGID_4_)" fill="#ACD47C" points="119.089,336.213 96.532,352.234 74.397,318.294 92.527,304.38 	"/>
	<polygon clip-path="url(#SVGID_4_)" fill="#ACD47C" points="89.353,301.095 71.445,315.554 49.728,298.573 84.517,293.84 	"/>
	<polygon clip-path="url(#SVGID_4_)" fill="#ACD47C" points="72.921,325.04 46.043,384.489 91.262,354.765 	"/>
	<polygon clip-path="url(#SVGID_4_)" fill="#ACD47C" points="102.225,354.765 48.257,388.916 49.443,391.735 144.387,408.943 
		160.409,387.229 141.541,364.884 121.62,378.586 	"/>
	<polygon clip-path="url(#SVGID_4_)" fill="#ACD47C" points="122.462,340.219 107.283,351.181 121.197,372.051 138.483,360.035 	"/>
	<polygon clip-path="url(#SVGID_4_)" fill="#ACD47C" points="141.541,414.635 110.235,458.273 84.095,432.554 95.689,405.359 	"/>
	<polygon clip-path="url(#SVGID_4_)" fill="#ACD47C" points="50.365,398.191 79.879,428.338 90.786,404.3 	"/>
	<polygon clip-path="url(#SVGID_4_)" fill="#ACD47C" points="67.969,321.758 42.835,299.469 30.679,300.514 42.862,383.713 	"/>
	<polygon clip-path="url(#SVGID_4_)" fill="#ACD47C" points="23.857,301.399 14.105,302.483 5.251,321.034 27.066,323.416 	"/>
	<polygon clip-path="url(#SVGID_4_)" fill="#ACD47C" points="3.775,325.04 -2.76,340.219 29.896,344.329 27.613,327.168 	"/>
	<polygon clip-path="url(#SVGID_4_)" fill="#ACD47C" points="-13.301,307.543 5.251,306.699 -13.301,345.91 	"/>
	<polygon clip-path="url(#SVGID_4_)" fill="#ACD47C" points="-5.29,344.013 -14.565,361.3 -14.565,372.051 29.494,384.489 	"/>
	<polygon clip-path="url(#SVGID_4_)" fill="#ACD47C" points="-14.565,377.954 -14.565,420.959 29.495,392.711 	"/>
	<polygon clip-path="url(#SVGID_4_)" fill="#ACD47C" points="31.392,398.191 -13.3,428.338 -13.3,477.668 -4.025,481.884 	"/>
	<polygon clip-path="url(#SVGID_4_)" fill="#ACD47C" points="38.411,401.261 -0.02,483.149 54.37,510.766 	"/>
	<polygon clip-path="url(#SVGID_4_)" fill="#ACD47C" points="45.167,399.457 61.959,514.139 107.284,462.067 	"/>
	<polygon clip-path="url(#SVGID_4_)" fill="#ACD47C" points="-13.301,484.203 -13.301,511.608 1.667,511.608 9.045,494.954 	"/>
	<polygon clip-path="url(#SVGID_4_)" fill="#ACD47C" points="13.473,496.22 7.465,511.608 42.987,511.608 	"/>
	<polygon clip-path="url(#SVGID_4_)" fill="#DCDCDC" points="27.572,279.298 205.1,250.887 180.436,240.294 25.585,265.727 	"/>
	<polygon clip-path="url(#SVGID_4_)" fill="#DCDCDC" points="28.231,283.799 29.966,295.651 183.544,273.417 203.204,256.736 	"/>
	<polygon clip-path="url(#SVGID_4_)" fill="#DCDCDC" points="-13.301,288.675 21.465,284.986 23.075,296.033 -13.301,303.326 	"/>
	<polygon clip-path="url(#SVGID_4_)" fill="#DCDCDC" points="-13.301,272.113 -13.301,283.51 20.747,280.063 18.798,266.689 	"/>
	<polygon clip-path="url(#SVGID_4_)" fill="#DCDCDC" points="150.757,410.717 184.546,417.691 162.411,390.497 	"/>
	<polygon clip-path="url(#SVGID_4_)" fill="#DCDCDC" points="146.6,414.846 133.003,435.084 165.89,456.165 182.333,422.436 	"/>
	<polygon clip-path="url(#SVGID_4_)" fill="#DCDCDC" points="163.043,460.381 148.182,492.003 113.924,462.278 130.474,438.246 	"/>
	<polygon clip-path="url(#SVGID_4_)" fill="#DCDCDC" points="111.711,466.495 97.586,483.57 139.538,508.446 145.23,497.273 	"/>
	<polygon clip-path="url(#SVGID_4_)" fill="#DCDCDC" points="94.424,488.419 72.71,510.766 135.321,510.766 	"/>
	<polygon clip-path="url(#SVGID_4_)" fill="#DCDCDC" points="150.079,499.593 143.754,511.608 164.835,511.608 	"/>
	<polygon clip-path="url(#SVGID_4_)" fill="#DCDCDC" points="192.663,462.7 154.294,486.522 152.608,494.533 177.906,511.608 
		205.101,510.766 	"/>
	<polygon clip-path="url(#SVGID_4_)" fill="#DCDCDC" points="183.793,427.649 161.462,475.981 191.398,458.273 	"/>
	<polygon clip-path="url(#SVGID_4_)" fill="#DCDCDC" points="189.922,421.17 196.668,453.425 216.484,434.03 	"/>
	<polygon clip-path="url(#SVGID_4_)" fill="#DCDCDC" points="197.301,459.96 219.648,438.246 229.344,511.608 209.949,511.608 	"/>
	<polygon clip-path="url(#SVGID_4_)" fill="#DCDCDC" points="227.658,456.165 235.247,511.608 269.562,474.297 	"/>
	<polygon clip-path="url(#SVGID_4_)" fill="#DCDCDC" points="271.928,478.281 242.204,511.608 264.972,511.608 276.776,483.886 	"/>
	<polygon clip-path="url(#SVGID_4_)" fill="#DCDCDC" points="279.97,488.485 268.134,511.608 305.447,511.608 305.447,508.446 	"/>
	<polygon clip-path="url(#SVGID_4_)" fill="#DCDCDC" points="326.95,475.981 295.662,457.827 282.227,484.076 307.134,502.966 	"/>
	<polygon clip-path="url(#SVGID_4_)" fill="#DCDCDC" points="332.221,479.565 343.908,491.664 317.975,511.729 311.35,506.549 	"/>
	<polygon clip-path="url(#SVGID_4_)" fill="#DCDCDC" points="347.429,495.491 326.106,512.015 364.053,511.608 	"/>
	<polygon clip-path="url(#SVGID_4_)" fill="#DCDCDC" points="373.75,511.608 369.636,478.281 350.805,492.922 368.901,511.608 	"/>
	<polygon clip-path="url(#SVGID_4_)" fill="#DCDCDC" points="361.734,440.986 334.281,475.966 347.208,489.113 367.567,473.362 	"/>
	<polygon clip-path="url(#SVGID_4_)" fill="#DCDCDC" points="327.386,419.792 297.914,453.428 329.901,472.187 355.62,439.743 	"/>
	<polygon clip-path="url(#SVGID_4_)" fill="#ACD47C" points="3.828,345.91 30.904,349.752 35.721,382.803 	"/>
	<polygon clip-path="url(#SVGID_4_)" fill="#DCDCDC" points="280.521,406.757 235.458,436.349 284.379,458.185 	"/>
	<polygon clip-path="url(#SVGID_4_)" fill="#DCDCDC" points="283.374,378.075 288.034,454.21 323.577,415.563 	"/>
	<polygon clip-path="url(#SVGID_4_)" fill="#DCDCDC" points="346.831,397.6 330.745,415.9 359.257,436.531 	"/>
	<polygon clip-path="url(#SVGID_4_)" fill="#ACD47C" points="364.053,430.235 395.253,398.191 393.146,388.705 351.826,398.191 	"/>
	<polygon clip-path="url(#SVGID_4_)" fill="#ACD47C" points="377.32,351.749 351.299,392.5 389.562,384.278 	"/>
	<polygon clip-path="url(#SVGID_4_)" fill="#DCDCDC" points="370.414,350.548 334.118,350.548 346.591,384.173 	"/>
	<polygon clip-path="url(#SVGID_4_)" fill="#DCDCDC" points="329.479,352.234 312.062,375.239 336.291,398.71 343.028,389.202 	"/>
	<polygon clip-path="url(#SVGID_4_)" fill="#DCDCDC" points="280.151,401.029 278.356,369.52 236.722,403.251 222.599,431.184 
		229.344,433.608 	"/>
	<polygon clip-path="url(#SVGID_4_)" fill="#DCDCDC" points="275.751,323.765 278.099,364.979 276.145,366.359 260.938,351.798 	"/>
	<polygon clip-path="url(#SVGID_4_)" fill="#DCDCDC" points="258.226,356.135 272.139,368.889 242.625,392.5 	"/>
	<polygon clip-path="url(#SVGID_4_)" fill="#DCDCDC" points="247.474,296.422 269.609,302.484 249.213,342.748 230.398,332.629 	"/>
	<polygon clip-path="url(#SVGID_4_)" fill="#DCDCDC" points="229.344,337.057 246.631,346.121 208.473,426.019 190.554,414.846 	"/>
	<polygon clip-path="url(#SVGID_4_)" fill="#DCDCDC" points="258.151,349.286 253.66,346.962 274.575,303.115 275.315,316.119 	"/>
	
		<rect x="232.507" y="347.909" transform="matrix(0.8968 0.4423 -0.4423 0.8968 196.6979 -63.7505)" clip-path="url(#SVGID_4_)" fill="#DCDCDC" width="5.058" height="83.91"/>
	<polygon clip-path="url(#SVGID_4_)" fill="#DCDCDC" points="272.139,471.555 280.631,462.26 224.656,437.298 227.188,452.511 	"/>
	<polygon clip-path="url(#SVGID_4_)" fill="#DCDCDC" points="330.745,341.905 355.62,317.661 311.982,296.422 305.869,297.213 	"/>
	<polygon clip-path="url(#SVGID_4_)" fill="#DCDCDC" points="323.577,339.164 280.992,339.164 278.737,302.326 299.966,296.422 	"/>
	<polygon clip-path="url(#SVGID_4_)" fill="#DCDCDC" points="321.187,273.376 307.345,290.256 359.204,313.867 374.021,298.941 	"/>
	<polygon clip-path="url(#SVGID_4_)" fill="#DCDCDC" points="360.68,319.585 336.015,344.118 374.97,344.118 383.602,331.786 	"/>
	<polygon clip-path="url(#SVGID_4_)" fill="#DCDCDC" points="364.475,315.554 385.978,328.582 398.564,310.816 377.589,300.667 	"/>
	<polygon clip-path="url(#SVGID_4_)" fill="#ACD47C" points="388.419,334.367 380.213,347.219 395.253,382.803 410.181,379.507 
		409.976,349.306 	"/>
	<polygon clip-path="url(#SVGID_4_)" fill="#ACD47C" points="409.878,343.038 409.878,316.291 402.303,312.626 390.666,330.849 	"/>
	<polygon clip-path="url(#SVGID_4_)" fill="#ACD47C" points="400.049,395.24 409.378,385.595 396.479,387.229 	"/>
	<polygon clip-path="url(#SVGID_4_)" fill="#DCDCDC" points="297.015,384.173 326.95,349.286 325.264,344.118 311.192,344.118 
		282.729,367.522 282.948,371.11 	"/>
	<polygon clip-path="url(#SVGID_4_)" fill="#DCDCDC" points="282.442,362.646 307.345,341.905 281.154,341.809 	"/>
	<polygon clip-path="url(#SVGID_4_)" fill="#DCDCDC" points="326.95,411.895 334.109,401.79 308.583,378.48 300.599,387.229 	"/>
	<polygon clip-path="url(#SVGID_4_)" fill="#ACD47C" points="366.214,433.608 372.459,469.577 410.485,440.158 410.1,391.13 	"/>
	<polygon clip-path="url(#SVGID_4_)" fill="#ACD47C" points="373.75,475.093 410.484,446.626 410.484,511.608 379.337,511.608 	"/>
	<polygon clip-path="url(#SVGID_4_)" fill="#DCDCDC" points="414.648,318.6 415.174,346.581 432.777,358.559 447.658,334.572 	"/>
	<polygon clip-path="url(#SVGID_4_)" fill="#DCDCDC" points="415.279,352.234 415.657,372.331 420.353,376.563 430.211,363.057 	"/>
	<polygon clip-path="url(#SVGID_4_)" fill="#DCDCDC" points="452.176,336.758 424.121,379.96 442.027,396.099 470.957,345.846 	"/>
	<polygon clip-path="url(#SVGID_4_)" fill="#DCDCDC" points="475.314,347.954 445.919,399.606 455.215,407.984 510.198,364.834 	"/>
	<polygon clip-path="url(#SVGID_4_)" fill="#DCDCDC" points="459.158,411.539 480.17,430.477 514.139,396.294 513.757,366.556 	"/>
	<polygon clip-path="url(#SVGID_4_)" fill="#DCDCDC" points="484.435,434.32 514.14,403.462 514.14,461.094 	"/>
	<polygon clip-path="url(#SVGID_4_)" fill="#DCDCDC" points="415.825,381.289 416.862,436.531 449.134,412.378 	"/>
	<polygon clip-path="url(#SVGID_4_)" fill="#DCDCDC" points="429.194,433.714 416.967,442.161 417.952,494.533 453.33,457.484 	"/>
	<polygon clip-path="url(#SVGID_4_)" fill="#DCDCDC" points="418.115,503.216 418.272,511.608 432.27,511.776 447.886,498.28 
		434.714,485.973 	"/>
	<polygon clip-path="url(#SVGID_4_)" fill="#DCDCDC" points="499.735,459.609 479.034,477.548 512.043,511.608 514.14,511.608 
		514.039,472.96 	"/>
	<polygon clip-path="url(#SVGID_4_)" fill="#DCDCDC" points="496.32,456.422 475.572,474.295 460.93,458.738 478.854,440.118 	"/>
	<polygon clip-path="url(#SVGID_4_)" fill="#DCDCDC" points="456.624,454.17 474.82,435.86 461.024,423.459 445.005,440.986 	"/>
	<polygon clip-path="url(#SVGID_4_)" fill="#DCDCDC" points="441.632,438.246 458.021,420.673 452.111,415.158 434.569,430.617 	"/>
	<polygon clip-path="url(#SVGID_4_)" fill="#DCDCDC" points="486.113,491.792 464.821,511.608 505.086,511.608 	"/>
	<polygon clip-path="url(#SVGID_4_)" fill="#DCDCDC" points="445.828,474.426 437.7,482.869 450.945,495.636 459.9,487.896 	"/>
	<polygon clip-path="url(#SVGID_4_)" fill="#DCDCDC" points="448.756,471.385 462.828,485.366 472.406,477.089 457.852,461.936 	"/>
	<polygon clip-path="url(#SVGID_4_)" fill="#DCDCDC" points="454.366,498.874 475.629,480.457 482.74,488.524 461.712,506.654 	"/>
	<path clip-path="url(#SVGID_4_)" fill="#DCDCDC" d="M285.696,244.517c0,7.685-6.229,13.914-13.914,13.914
		c-7.684,0-13.913-6.229-13.913-13.914c0-7.684,6.229-13.914,13.913-13.914C279.467,230.603,285.696,236.833,285.696,244.517"/>
	
		<line clip-path="url(#SVGID_4_)" fill="none" stroke="#B6D9F7" stroke-width="2" stroke-miterlimit="10" x1="-0.02" y1="118.76" x2="58.586" y2="514.139"/>
	<polyline clip-path="url(#SVGID_4_)" fill="none" stroke="#B6D9F7" stroke-width="2" stroke-miterlimit="10" points="
		-17.833,374.317 51.893,396.031 91.262,401.261 143.596,411.895 185.179,420.959 208.263,513.611 	"/>
	<polyline clip-path="url(#SVGID_4_)" fill="none" stroke="#B6D9F7" stroke-width="2" stroke-miterlimit="10" points="
		115.769,18.519 322.469,90.722 372.591,110.117 400.523,124.769 434.043,146.805 471.673,171.99 519,206.037 	"/>
	
		<line clip-path="url(#SVGID_4_)" fill="none" stroke="#B6D9F7" stroke-width="2" stroke-miterlimit="10" x1="12.865" y1="-18.373" x2="99.578" y2="12.182"/>
	<path clip-path="url(#SVGID_4_)" fill="#DCDCDC" d="M46.148,391.735c0,3.565-2.891,6.456-6.456,6.456
		c-3.566,0-6.456-2.891-6.456-6.456s2.89-6.456,6.456-6.456C43.257,385.279,46.148,388.17,46.148,391.735"/>
	<polygon clip-path="url(#SVGID_4_)" fill="#DCDCDC" points="272.297,475.981 279.393,481.276 292.693,456.165 	"/>
</g>
<g>
	<defs>
		<rect id="SVGID_5_" width="500" height="500"/>
	</defs>
	<clipPath id="SVGID_6_">
		<use xlink:href="#SVGID_5_"  overflow="visible"/>
	</clipPath>
</g>
</svg>
